<svg width="436" height="129" viewBox="0 0 436 129" fill="none" xmlns="http://www.w3.org/2000/svg">
<path d="M56.6 122.48H54.12C53.83 122.48 53.6 122.41 53.43 122.27C53.25 122.13 53.12 121.94 53.03 121.72L50.82 116.01H40.21L38 121.72C37.92 121.92 37.79 122.09 37.6 122.25C37.41 122.41 37.18 122.48 36.91 122.48H34.43L43.89 98.82H47.14L56.6 122.48ZM41.1 113.7H49.93L46.22 104.08C45.98 103.48 45.74 102.74 45.51 101.85C45.39 102.3 45.27 102.72 45.15 103.1C45.03 103.48 44.92 103.81 44.81 104.1L41.1 113.71V113.7Z" fill="white"/>
<path d="M60.28 122.48V105.76H61.96C62.28 105.76 62.5 105.82 62.62 105.94C62.74 106.06 62.82 106.27 62.87 106.57L63.07 109.18C63.64 108.01 64.35 107.1 65.19 106.45C66.03 105.79 67.02 105.47 68.15 105.47C68.61 105.47 69.03 105.52 69.4 105.63C69.77 105.73 70.12 105.88 70.44 106.07L70.06 108.26C69.98 108.54 69.81 108.67 69.55 108.67C69.4 108.67 69.16 108.62 68.84 108.51C68.52 108.41 68.07 108.35 67.5 108.35C66.48 108.35 65.62 108.65 64.93 109.24C64.24 109.84 63.67 110.7 63.2 111.83V122.48H60.26H60.28Z" fill="white"/>
<path d="M86.15 108.73C86.06 108.85 85.97 108.94 85.89 109.01C85.8 109.08 85.68 109.11 85.51 109.11C85.34 109.11 85.17 109.04 84.97 108.9C84.77 108.76 84.53 108.61 84.24 108.44C83.94 108.28 83.58 108.12 83.16 107.99C82.74 107.86 82.22 107.78 81.6 107.78C80.79 107.78 80.07 107.92 79.44 108.22C78.81 108.51 78.29 108.93 77.86 109.48C77.44 110.03 77.12 110.7 76.9 111.48C76.69 112.26 76.58 113.14 76.58 114.1C76.58 115.11 76.69 116.01 76.93 116.8C77.16 117.59 77.49 118.25 77.9 118.78C78.32 119.31 78.83 119.72 79.43 120C80.03 120.28 80.7 120.42 81.45 120.42C82.2 120.42 82.75 120.33 83.22 120.16C83.68 119.99 84.07 119.8 84.37 119.59C84.68 119.38 84.93 119.19 85.13 119.02C85.33 118.85 85.53 118.76 85.72 118.76C85.97 118.76 86.16 118.85 86.28 119.04L87.11 120.11C86.38 121 85.48 121.65 84.39 122.07C83.3 122.48 82.15 122.69 80.94 122.69C79.89 122.69 78.92 122.5 78.03 122.11C77.13 121.73 76.35 121.17 75.7 120.43C75.04 119.7 74.52 118.8 74.14 117.73C73.76 116.66 73.57 115.45 73.57 114.08C73.57 112.84 73.74 111.69 74.09 110.63C74.44 109.57 74.94 108.66 75.61 107.9C76.28 107.14 77.1 106.54 78.08 106.11C79.06 105.68 80.18 105.47 81.45 105.47C82.62 105.47 83.65 105.66 84.55 106.04C85.45 106.42 86.25 106.96 86.94 107.65L86.16 108.71L86.15 108.73Z" fill="white"/>
<path d="M91.32 122.48V98.17H94.26V108.01C94.98 107.25 95.77 106.64 96.64 106.19C97.51 105.73 98.51 105.51 99.64 105.51C100.55 105.51 101.36 105.66 102.06 105.96C102.76 106.26 103.34 106.69 103.81 107.25C104.28 107.81 104.63 108.47 104.88 109.25C105.12 110.03 105.24 110.9 105.24 111.84V122.49H102.3V111.84C102.3 110.58 102.01 109.59 101.43 108.9C100.85 108.2 99.97 107.85 98.78 107.85C97.91 107.85 97.1 108.06 96.35 108.48C95.6 108.9 94.9 109.46 94.26 110.18V122.5H91.32V122.48Z" fill="white"/>
<path d="M114.76 100.51C114.76 100.79 114.7 101.06 114.59 101.31C114.48 101.56 114.32 101.78 114.13 101.97C113.94 102.16 113.71 102.32 113.46 102.43C113.21 102.54 112.94 102.59 112.65 102.59C112.36 102.59 112.1 102.54 111.85 102.43C111.6 102.32 111.38 102.17 111.19 101.97C111 101.78 110.84 101.56 110.74 101.31C110.63 101.06 110.58 100.79 110.58 100.51C110.58 100.23 110.63 99.95 110.74 99.69C110.85 99.43 111 99.21 111.19 99.01C111.38 98.82 111.6 98.67 111.85 98.56C112.1 98.45 112.36 98.39 112.65 98.39C112.94 98.39 113.21 98.45 113.46 98.56C113.71 98.67 113.94 98.82 114.13 99.01C114.32 99.2 114.48 99.43 114.59 99.69C114.71 99.95 114.76 100.22 114.76 100.51ZM114.09 105.76V122.48H111.15V105.76H114.09Z" fill="white"/>
<path d="M125.5 122.74C124.18 122.74 123.16 122.37 122.45 121.63C121.74 120.89 121.38 119.83 121.38 118.45V108.22H119.37C119.19 108.22 119.04 108.17 118.92 108.06C118.8 107.95 118.74 107.79 118.74 107.57V106.4L121.48 106.05L122.16 100.88C122.18 100.71 122.25 100.58 122.37 100.47C122.49 100.37 122.65 100.31 122.83 100.31H124.32V106.07H129.11V108.2H124.32V118.23C124.32 118.94 124.49 119.46 124.83 119.8C125.17 120.14 125.61 120.31 126.15 120.31C126.46 120.31 126.73 120.27 126.95 120.19C127.18 120.11 127.37 120.02 127.54 119.92C127.7 119.82 127.85 119.73 127.96 119.65C128.07 119.57 128.18 119.53 128.26 119.53C128.41 119.53 128.55 119.62 128.67 119.81L129.53 121.21C129.02 121.68 128.41 122.05 127.7 122.32C126.98 122.59 126.25 122.72 125.49 122.72L125.5 122.74Z" fill="white"/>
<path d="M140.52 105.5C141.52 105.5 142.45 105.67 143.29 106C144.14 106.33 144.87 106.82 145.49 107.45C146.11 108.08 146.59 108.86 146.93 109.79C147.27 110.72 147.45 111.78 147.45 112.97C147.45 113.43 147.4 113.74 147.3 113.89C147.2 114.04 147.01 114.12 146.74 114.12H135.61C135.63 115.18 135.77 116.1 136.04 116.87C136.3 117.65 136.67 118.31 137.13 118.83C137.59 119.35 138.14 119.74 138.78 120C139.42 120.26 140.13 120.39 140.93 120.39C141.67 120.39 142.3 120.31 142.84 120.13C143.38 119.95 143.83 119.77 144.22 119.58C144.6 119.38 144.93 119.2 145.19 119.03C145.45 118.86 145.67 118.77 145.86 118.77C146.1 118.77 146.29 118.86 146.42 119.05L147.25 120.12C146.89 120.56 146.45 120.94 145.95 121.27C145.44 121.59 144.9 121.86 144.33 122.07C143.75 122.28 143.16 122.44 142.54 122.54C141.92 122.65 141.31 122.7 140.71 122.7C139.56 122.7 138.49 122.51 137.52 122.11C136.55 121.72 135.7 121.15 134.99 120.39C134.28 119.64 133.73 118.7 133.33 117.59C132.93 116.48 132.74 115.2 132.74 113.76C132.74 112.59 132.92 111.5 133.28 110.49C133.64 109.48 134.15 108.6 134.82 107.86C135.49 107.12 136.31 106.54 137.28 106.11C138.25 105.69 139.34 105.48 140.55 105.48L140.52 105.5ZM140.59 107.66C139.17 107.66 138.05 108.07 137.24 108.89C136.43 109.71 135.92 110.84 135.72 112.3H144.82C144.82 111.62 144.73 110.99 144.54 110.42C144.35 109.85 144.08 109.36 143.71 108.95C143.35 108.54 142.9 108.22 142.38 107.99C141.86 107.76 141.26 107.65 140.59 107.65V107.66Z" fill="white"/>
<path d="M163.76 108.73C163.67 108.85 163.58 108.94 163.5 109.01C163.41 109.08 163.29 109.11 163.12 109.11C162.95 109.11 162.78 109.04 162.58 108.9C162.38 108.76 162.14 108.61 161.85 108.44C161.55 108.28 161.19 108.12 160.77 107.99C160.35 107.86 159.83 107.78 159.21 107.78C158.4 107.78 157.68 107.92 157.05 108.22C156.42 108.51 155.9 108.93 155.47 109.48C155.04 110.03 154.73 110.7 154.51 111.48C154.3 112.26 154.19 113.14 154.19 114.1C154.19 115.11 154.3 116.01 154.54 116.8C154.77 117.59 155.1 118.25 155.51 118.78C155.93 119.31 156.44 119.72 157.04 120C157.64 120.28 158.31 120.42 159.06 120.42C159.81 120.42 160.36 120.33 160.83 120.16C161.29 119.99 161.68 119.8 161.98 119.59C162.29 119.38 162.54 119.19 162.74 119.02C162.94 118.85 163.14 118.76 163.33 118.76C163.58 118.76 163.77 118.85 163.89 119.04L164.72 120.11C163.99 121 163.09 121.65 162 122.07C160.91 122.48 159.76 122.69 158.55 122.69C157.5 122.69 156.53 122.5 155.64 122.11C154.74 121.73 153.96 121.17 153.31 120.43C152.65 119.7 152.13 118.8 151.75 117.73C151.37 116.66 151.18 115.45 151.18 114.08C151.18 112.84 151.35 111.69 151.7 110.63C152.05 109.57 152.55 108.66 153.22 107.9C153.89 107.14 154.71 106.54 155.69 106.11C156.67 105.68 157.79 105.47 159.06 105.47C160.23 105.47 161.26 105.66 162.16 106.04C163.06 106.42 163.86 106.96 164.55 107.65L163.77 108.71L163.76 108.73Z" fill="white"/>
<path d="M174 122.74C172.68 122.74 171.66 122.37 170.95 121.63C170.24 120.89 169.88 119.83 169.88 118.45V108.22H167.87C167.69 108.22 167.54 108.17 167.42 108.06C167.3 107.95 167.24 107.79 167.24 107.57V106.4L169.98 106.05L170.66 100.88C170.68 100.71 170.75 100.58 170.87 100.47C170.99 100.37 171.15 100.31 171.33 100.31H172.82V106.07H177.61V108.2H172.82V118.23C172.82 118.94 172.99 119.46 173.33 119.8C173.67 120.14 174.11 120.31 174.65 120.31C174.96 120.31 175.23 120.27 175.45 120.19C175.68 120.11 175.87 120.02 176.04 119.92C176.2 119.82 176.35 119.73 176.46 119.65C176.57 119.57 176.68 119.53 176.76 119.53C176.91 119.53 177.05 119.62 177.17 119.81L178.03 121.21C177.52 121.68 176.91 122.05 176.2 122.32C175.48 122.59 174.75 122.72 173.99 122.72L174 122.74Z" fill="white"/>
<path d="M184.94 105.76V116.42C184.94 117.68 185.23 118.66 185.81 119.36C186.39 120.06 187.27 120.4 188.45 120.4C189.31 120.4 190.12 120.2 190.88 119.79C191.64 119.38 192.34 118.82 192.98 118.09V105.76H195.92V122.48H194.17C193.75 122.48 193.49 122.28 193.38 121.87L193.15 120.07C192.42 120.87 191.61 121.52 190.71 122.01C189.81 122.5 188.77 122.74 187.61 122.74C186.7 122.74 185.89 122.59 185.19 122.29C184.49 121.99 183.91 121.56 183.43 121.01C182.96 120.46 182.6 119.8 182.37 119.01C182.13 118.23 182.01 117.36 182.01 116.42V105.76H184.95H184.94Z" fill="white"/>
<path d="M201.91 122.48V105.76H203.59C203.91 105.76 204.13 105.82 204.25 105.94C204.37 106.06 204.45 106.27 204.5 106.57L204.7 109.18C205.27 108.01 205.98 107.1 206.82 106.45C207.66 105.79 208.65 105.47 209.78 105.47C210.24 105.47 210.66 105.52 211.03 105.63C211.4 105.73 211.75 105.88 212.07 106.07L211.69 108.26C211.61 108.54 211.44 108.67 211.18 108.67C211.03 108.67 210.79 108.62 210.47 108.51C210.15 108.41 209.7 108.35 209.13 108.35C208.11 108.35 207.25 108.65 206.56 109.24C205.87 109.84 205.3 110.7 204.83 111.83V122.48H201.89H201.91Z" fill="white"/>
<path d="M228.03 122.48H226.73C226.44 122.48 226.21 122.44 226.04 122.35C225.86 122.26 225.75 122.07 225.69 121.79L225.36 120.24C224.92 120.64 224.49 120.99 224.07 121.3C223.65 121.61 223.21 121.88 222.75 122.09C222.29 122.3 221.8 122.47 221.27 122.58C220.75 122.69 220.17 122.74 219.53 122.74C218.89 122.74 218.27 122.65 217.71 122.47C217.14 122.29 216.65 122.01 216.23 121.65C215.81 121.29 215.48 120.83 215.23 120.27C214.98 119.71 214.86 119.05 214.86 118.29C214.86 117.63 215.04 116.99 215.41 116.38C215.78 115.77 216.36 115.22 217.17 114.75C217.98 114.27 219.04 113.89 220.35 113.58C221.66 113.28 223.26 113.12 225.15 113.12V111.81C225.15 110.5 224.87 109.52 224.32 108.84C223.76 108.17 222.94 107.84 221.85 107.84C221.13 107.84 220.53 107.93 220.04 108.11C219.55 108.29 219.13 108.49 218.77 108.72C218.41 108.95 218.1 109.15 217.85 109.33C217.59 109.51 217.34 109.6 217.08 109.6C216.88 109.6 216.71 109.55 216.56 109.44C216.41 109.33 216.29 109.21 216.21 109.05L215.68 108.11C216.6 107.22 217.6 106.55 218.67 106.11C219.74 105.67 220.92 105.45 222.22 105.45C223.15 105.45 223.99 105.61 224.71 105.91C225.44 106.22 226.05 106.65 226.54 107.2C227.03 107.75 227.41 108.42 227.66 109.2C227.91 109.98 228.04 110.84 228.04 111.78V122.48H228.03ZM220.4 120.68C220.92 120.68 221.39 120.63 221.82 120.52C222.25 120.42 222.65 120.27 223.03 120.07C223.41 119.88 223.77 119.64 224.12 119.37C224.47 119.09 224.8 118.78 225.14 118.43V114.98C223.79 114.98 222.64 115.07 221.69 115.24C220.74 115.41 219.97 115.64 219.38 115.91C218.79 116.19 218.35 116.51 218.08 116.89C217.81 117.27 217.68 117.69 217.68 118.15C217.68 118.61 217.75 118.97 217.89 119.3C218.03 119.62 218.23 119.88 218.47 120.09C218.71 120.3 219 120.45 219.33 120.54C219.66 120.63 220.02 120.68 220.4 120.68Z" fill="white"/>
<path d="M236.91 98.17V122.48H233.97V98.17H236.91Z" fill="white"/>
<path d="M267.91 117.6C268.09 117.6 268.25 117.67 268.39 117.81L269.64 119.18C268.67 120.3 267.5 121.18 266.12 121.81C264.74 122.44 263.07 122.75 261.13 122.75C259.42 122.75 257.88 122.46 256.49 121.87C255.1 121.28 253.92 120.46 252.94 119.39C251.96 118.32 251.2 117.05 250.66 115.57C250.12 114.08 249.85 112.45 249.85 110.67C249.85 108.89 250.14 107.25 250.72 105.77C251.3 104.28 252.11 103.01 253.15 101.94C254.2 100.87 255.45 100.04 256.91 99.45C258.37 98.86 259.98 98.57 261.74 98.57C263.5 98.57 264.98 98.84 266.24 99.38C267.5 99.92 268.62 100.65 269.6 101.58L268.56 103.05C268.48 103.16 268.39 103.25 268.3 103.32C268.21 103.39 268.06 103.43 267.87 103.43C267.73 103.43 267.58 103.38 267.42 103.27C267.26 103.17 267.07 103.04 266.85 102.88C266.63 102.72 266.37 102.56 266.07 102.38C265.77 102.2 265.42 102.04 265.01 101.88C264.6 101.72 264.13 101.6 263.59 101.49C263.05 101.38 262.43 101.33 261.72 101.33C260.45 101.33 259.3 101.55 258.24 101.98C257.18 102.41 256.28 103.03 255.52 103.84C254.76 104.64 254.17 105.62 253.75 106.78C253.33 107.94 253.11 109.23 253.11 110.66C253.11 112.09 253.32 113.45 253.75 114.61C254.17 115.77 254.75 116.74 255.48 117.54C256.21 118.34 257.08 118.95 258.08 119.36C259.08 119.78 260.16 119.99 261.32 119.99C262.02 119.99 262.66 119.95 263.22 119.87C263.78 119.79 264.3 119.66 264.78 119.48C265.26 119.3 265.7 119.08 266.12 118.81C266.53 118.54 266.95 118.22 267.37 117.85C267.56 117.68 267.74 117.6 267.92 117.6H267.91Z" fill="white"/>
<path d="M286.82 122.48H285.52C285.23 122.48 285 122.44 284.83 122.35C284.65 122.26 284.54 122.07 284.48 121.79L284.15 120.24C283.71 120.64 283.28 120.99 282.86 121.3C282.44 121.61 282 121.88 281.54 122.09C281.08 122.3 280.59 122.47 280.06 122.58C279.54 122.69 278.96 122.74 278.32 122.74C277.68 122.74 277.06 122.65 276.5 122.47C275.93 122.29 275.44 122.01 275.02 121.65C274.6 121.29 274.27 120.83 274.02 120.27C273.77 119.71 273.65 119.05 273.65 118.29C273.65 117.63 273.83 116.99 274.2 116.38C274.57 115.77 275.15 115.22 275.96 114.75C276.77 114.27 277.83 113.89 279.14 113.58C280.45 113.28 282.05 113.12 283.94 113.12V111.81C283.94 110.5 283.66 109.52 283.11 108.84C282.55 108.17 281.73 107.84 280.64 107.84C279.92 107.84 279.32 107.93 278.83 108.11C278.34 108.29 277.92 108.49 277.56 108.72C277.2 108.95 276.89 109.15 276.64 109.33C276.38 109.51 276.13 109.6 275.87 109.6C275.67 109.6 275.5 109.55 275.35 109.44C275.2 109.33 275.08 109.21 275 109.05L274.47 108.11C275.39 107.22 276.39 106.55 277.46 106.11C278.53 105.67 279.71 105.45 281.01 105.45C281.94 105.45 282.78 105.61 283.5 105.91C284.23 106.22 284.84 106.65 285.33 107.2C285.82 107.75 286.2 108.42 286.45 109.2C286.7 109.98 286.83 110.84 286.83 111.78V122.48H286.82ZM279.2 120.68C279.72 120.68 280.19 120.63 280.62 120.52C281.05 120.42 281.45 120.27 281.83 120.07C282.21 119.88 282.57 119.64 282.92 119.37C283.27 119.09 283.6 118.78 283.94 118.43V114.98C282.59 114.98 281.44 115.07 280.49 115.24C279.54 115.41 278.77 115.64 278.18 115.91C277.59 116.19 277.15 116.51 276.88 116.89C276.61 117.27 276.48 117.69 276.48 118.15C276.48 118.61 276.55 118.97 276.69 119.3C276.83 119.62 277.03 119.88 277.27 120.09C277.51 120.3 277.8 120.45 278.13 120.54C278.46 120.63 278.82 120.68 279.2 120.68Z" fill="white"/>
<path d="M292.53 122.48V98.17H295.48V108.17C296.17 107.37 296.97 106.72 297.87 106.23C298.77 105.74 299.79 105.5 300.95 105.5C301.92 105.5 302.79 105.68 303.58 106.04C304.36 106.4 305.03 106.95 305.58 107.67C306.13 108.39 306.55 109.28 306.85 110.34C307.15 111.4 307.3 112.63 307.3 114.01C307.3 115.24 307.14 116.39 306.8 117.45C306.47 118.51 305.99 119.43 305.37 120.21C304.75 120.99 303.99 121.6 303.09 122.04C302.19 122.49 301.18 122.71 300.06 122.71C298.94 122.71 298.06 122.5 297.31 122.08C296.56 121.66 295.9 121.08 295.34 120.33L295.19 121.85C295.1 122.27 294.85 122.48 294.43 122.48H292.53ZM299.99 107.84C299.03 107.84 298.19 108.06 297.47 108.5C296.75 108.94 296.09 109.56 295.48 110.37V118.46C296.01 119.18 296.59 119.7 297.24 120C297.88 120.29 298.6 120.45 299.39 120.45C300.95 120.45 302.15 119.89 302.99 118.78C303.83 117.67 304.24 116.08 304.24 114.03C304.24 112.94 304.14 112 303.95 111.22C303.76 110.44 303.48 109.8 303.12 109.3C302.76 108.8 302.31 108.43 301.78 108.2C301.25 107.97 300.65 107.85 299.98 107.85L299.99 107.84Z" fill="white"/>
<path d="M315.97 100.51C315.97 100.79 315.91 101.06 315.8 101.31C315.69 101.56 315.53 101.78 315.34 101.97C315.15 102.16 314.92 102.32 314.67 102.43C314.42 102.54 314.15 102.59 313.86 102.59C313.57 102.59 313.31 102.54 313.06 102.43C312.81 102.32 312.59 102.17 312.4 101.97C312.21 101.78 312.05 101.56 311.95 101.31C311.84 101.06 311.79 100.79 311.79 100.51C311.79 100.23 311.84 99.95 311.95 99.69C312.06 99.43 312.21 99.21 312.4 99.01C312.59 98.82 312.81 98.67 313.06 98.56C313.31 98.45 313.57 98.39 313.86 98.39C314.15 98.39 314.42 98.45 314.67 98.56C314.92 98.67 315.15 98.82 315.34 99.01C315.53 99.2 315.69 99.43 315.8 99.69C315.92 99.95 315.97 100.22 315.97 100.51ZM315.31 105.76V122.48H312.37V105.76H315.31Z" fill="white"/>
<path d="M321.65 122.48V105.76H323.4C323.82 105.76 324.08 105.96 324.19 106.37L324.42 108.18C325.15 107.38 325.96 106.73 326.85 106.23C327.75 105.73 328.78 105.49 329.96 105.49C330.87 105.49 331.68 105.64 332.38 105.94C333.08 106.24 333.66 106.67 334.13 107.23C334.6 107.79 334.95 108.45 335.2 109.23C335.44 110.01 335.56 110.88 335.56 111.82V122.47H332.62V111.82C332.62 110.56 332.33 109.57 331.75 108.88C331.17 108.18 330.29 107.83 329.1 107.83C328.23 107.83 327.42 108.04 326.67 108.46C325.92 108.88 325.22 109.44 324.58 110.16V122.48H321.64H321.65Z" fill="white"/>
<path d="M347.78 105.5C348.78 105.5 349.71 105.67 350.55 106C351.4 106.33 352.13 106.82 352.75 107.45C353.37 108.08 353.85 108.86 354.19 109.79C354.53 110.72 354.71 111.78 354.71 112.97C354.71 113.43 354.66 113.74 354.56 113.89C354.46 114.04 354.27 114.12 354 114.12H342.87C342.89 115.18 343.03 116.1 343.3 116.87C343.56 117.65 343.93 118.31 344.39 118.83C344.85 119.35 345.4 119.74 346.04 120C346.68 120.26 347.39 120.39 348.19 120.39C348.93 120.39 349.56 120.31 350.1 120.13C350.64 119.95 351.09 119.77 351.48 119.58C351.86 119.38 352.19 119.2 352.45 119.03C352.71 118.86 352.93 118.77 353.12 118.77C353.36 118.77 353.55 118.86 353.68 119.05L354.51 120.12C354.15 120.56 353.71 120.94 353.21 121.27C352.7 121.59 352.16 121.86 351.59 122.07C351.01 122.28 350.42 122.44 349.8 122.54C349.18 122.65 348.57 122.7 347.97 122.7C346.82 122.7 345.75 122.51 344.78 122.11C343.81 121.72 342.96 121.15 342.25 120.39C341.54 119.64 340.99 118.7 340.59 117.59C340.19 116.48 340 115.2 340 113.76C340 112.59 340.18 111.5 340.54 110.49C340.9 109.48 341.41 108.6 342.08 107.86C342.75 107.12 343.57 106.54 344.54 106.11C345.51 105.69 346.6 105.48 347.81 105.48L347.78 105.5ZM347.85 107.66C346.43 107.66 345.31 108.07 344.5 108.89C343.69 109.71 343.18 110.84 342.98 112.3H352.08C352.08 111.62 351.99 110.99 351.8 110.42C351.61 109.85 351.34 109.36 350.97 108.95C350.61 108.54 350.16 108.22 349.64 107.99C349.12 107.76 348.52 107.65 347.85 107.65V107.66Z" fill="white"/>
<path d="M364.69 122.74C363.37 122.74 362.35 122.37 361.64 121.63C360.93 120.89 360.57 119.83 360.57 118.45V108.22H358.56C358.38 108.22 358.23 108.17 358.11 108.06C357.99 107.95 357.93 107.79 357.93 107.57V106.4L360.67 106.05L361.35 100.88C361.37 100.71 361.44 100.58 361.56 100.47C361.68 100.37 361.84 100.31 362.02 100.31H363.51V106.07H368.3V108.2H363.51V118.23C363.51 118.94 363.68 119.46 364.02 119.8C364.36 120.14 364.8 120.31 365.34 120.31C365.65 120.31 365.92 120.27 366.14 120.19C366.37 120.11 366.56 120.02 366.73 119.92C366.89 119.82 367.04 119.73 367.15 119.65C367.26 119.57 367.37 119.53 367.45 119.53C367.6 119.53 367.74 119.62 367.86 119.81L368.72 121.21C368.21 121.68 367.6 122.05 366.89 122.32C366.17 122.59 365.44 122.72 364.68 122.72L364.69 122.74Z" fill="white"/>
<path d="M372.09 122.48V105.76H373.77C374.09 105.76 374.31 105.82 374.43 105.94C374.55 106.06 374.63 106.27 374.68 106.57L374.88 109.18C375.45 108.01 376.16 107.1 377 106.45C377.84 105.79 378.83 105.47 379.96 105.47C380.42 105.47 380.84 105.52 381.21 105.63C381.58 105.73 381.93 105.88 382.25 106.07L381.87 108.26C381.79 108.54 381.62 108.67 381.36 108.67C381.21 108.67 380.97 108.62 380.65 108.51C380.33 108.41 379.88 108.35 379.31 108.35C378.29 108.35 377.43 108.65 376.74 109.24C376.05 109.84 375.48 110.7 375.01 111.83V122.48H372.07H372.09Z" fill="white"/>
<path d="M391.45 127.42C391.35 127.64 391.23 127.82 391.08 127.95C390.93 128.08 390.7 128.15 390.4 128.15H388.22L391.27 121.51L384.37 105.76H386.91C387.16 105.76 387.36 105.82 387.5 105.95C387.64 106.08 387.75 106.22 387.81 106.37L392.28 116.9C392.38 117.14 392.46 117.38 392.54 117.62C392.61 117.86 392.67 118.11 392.73 118.36C392.81 118.11 392.88 117.86 392.96 117.62C393.04 117.38 393.13 117.13 393.22 116.88L397.56 106.37C397.63 106.19 397.74 106.05 397.9 105.93C398.06 105.81 398.23 105.76 398.42 105.76H400.76L391.43 127.42H391.45Z" fill="white"/>
<path d="M32.56 79.97C25.26 80 19.2 78.36 14.38 75.02C9.56 71.69 5.96 67.07 3.58 61.17C1.2 55.27 0 48.48 0 40.8C0 34.48 0.8 28.81 2.41 23.78C4.02 18.75 6.32 14.47 9.31 10.93C12.3 7.38999 15.9 4.68 20.11 2.81C24.32 0.939998 28.99 0.00997925 34.13 0.00997925C41.37 0.00997925 47.37 1.61999 52.14 4.82999C56.91 8.03999 60.47 12.55 62.84 18.34C65.21 24.14 66.39 30.93 66.39 38.71C66.39 44.99 65.6 50.68 64.01 55.76C62.42 60.84 60.13 65.19 57.14 68.8C54.15 72.41 50.58 75.18 46.44 77.1C42.3 79.02 37.67 79.98 32.57 79.98L32.56 79.97ZM33.07 76.73C37.23 76.73 40.84 75.31 43.9 72.46C46.96 69.61 49.33 65.37 51 59.73C52.67 54.09 53.51 47.08 53.51 38.7C53.51 31.68 52.76 25.51 51.25 20.19C49.74 14.87 47.5 10.71 44.5 7.72998C41.51 4.73998 37.78 3.25 33.31 3.25C29.12 3.25 25.49 4.62998 22.43 7.38998C19.37 10.15 17.01 14.3 15.35 19.86C13.69 25.41 12.86 32.39 12.86 40.81C12.86 48.18 13.6 54.55 15.09 59.93C16.58 65.31 18.82 69.45 21.81 72.37C24.8 75.29 28.55 76.74 33.05 76.74L33.07 76.73Z" fill="white"/>
<path d="M80.09 74.63V5.12997L72.63 3.50998V0.939972H85.97C88.07 0.939972 89.92 0.86998 91.52 0.72998C93.13 0.58998 94.7 0.459996 96.24 0.339996C97.78 0.219996 99.46 0.159973 101.29 0.159973C106.29 0.159973 110.47 0.639976 113.82 1.59998C117.17 2.55998 119.82 3.87999 121.78 5.54999C123.74 7.22999 125.14 9.16 125.99 11.37C126.83 13.57 127.26 15.91 127.26 18.39C127.26 21.71 126.63 24.7 125.36 27.37C124.09 30.04 122.28 32.27 119.93 34.05C117.58 35.83 114.8 37.02 111.59 37.61C115.68 37.5 119.3 38.21 122.44 39.71C125.58 41.21 128.04 43.34 129.79 46.1C131.55 48.86 132.43 52.05 132.43 55.68C132.43 58.82 131.92 61.82 130.88 64.66C129.85 67.51 128.13 70.04 125.73 72.25C123.33 74.47 120.1 76.21 116.04 77.49C111.98 78.76 106.94 79.4 100.92 79.4C99.33 79.4 97.7 79.35 96.03 79.24C94.36 79.13 92.67 79.03 90.96 78.93C89.25 78.82 87.54 78.77 85.81 78.77H72.52V76.2L80.08 74.63H80.09ZM91.8 74.89C92.58 75.13 93.49 75.35 94.54 75.52C95.59 75.7 96.68 75.83 97.81 75.91C98.94 76 100.07 76.04 101.18 76.04C105.98 76.04 109.71 75.21 112.36 73.55C115.01 71.89 116.87 69.62 117.91 66.74C118.96 63.86 119.48 60.57 119.48 56.87C119.48 51.35 118.18 47.23 115.57 44.48C112.97 41.74 108.88 40.37 103.3 40.37H100.46C99.41 40.37 98.35 40.37 97.29 40.4C96.22 40.42 95.22 40.43 94.27 40.45C93.32 40.47 92.51 40.51 91.84 40.58L91.79 74.88L91.8 74.89ZM91.85 36.56C92.53 36.6 93.33 36.63 94.26 36.67C95.19 36.71 96.14 36.72 97.13 36.72H102.2C105.28 36.72 107.8 36 109.76 34.55C111.72 33.1 113.17 31.08 114.12 28.5C115.07 25.92 115.54 22.93 115.54 19.55C115.54 14 114.39 9.91998 112.09 7.31998C109.79 4.71998 105.87 3.41998 100.32 3.41998C99 3.41998 97.82 3.45999 96.77 3.54999C95.72 3.63999 94.79 3.73 93.98 3.84C93.17 3.95 92.46 4.02998 91.85 4.09998V36.57V36.56Z" fill="white"/>
<path d="M137.91 78.77V76.2L145.21 74.58V5.13998L138.01 3.51999V0.949982H165.5V3.51999L157.03 5.13998L156.98 74.95L181.38 73.12L188.43 55.37L193.91 56.26L190.31 78.78H137.91V78.77Z" fill="white"/>
<path d="M206.13 74.63V5.12997L198.62 3.50998V0.939972H225.05V3.50998L217.59 5.12997V74.63L225.1 76.2V78.77H198.62V76.2L206.13 74.63Z" fill="white"/>
<path d="M264.92 79.87C259.27 79.87 254.33 78.89 250.08 76.94C245.84 74.99 242.29 72.24 239.45 68.69C236.61 65.15 234.48 60.99 233.06 56.22C231.64 51.46 230.93 46.24 230.93 40.59C230.93 34.51 231.81 28.99 233.57 24.01C235.33 19.03 237.81 14.76 241.03 11.18C244.24 7.59999 248.04 4.83997 252.42 2.90997C256.8 0.969973 261.61 0 266.85 0C269.79 0 272.35 0.17 274.51 0.5C276.67 0.83 278.58 1.21999 280.24 1.64999C281.9 2.07999 283.43 2.46999 284.83 2.79999C286.23 3.12999 287.61 3.31998 288.96 3.34998L287.59 22.52H280.64L278.56 7.75C278.09 7.05 277.35 6.35999 276.35 5.67999C275.35 4.99999 274.09 4.44 272.57 4C271.05 3.56 269.26 3.34 267.19 3.34C262.32 3.34 258.16 4.73 254.71 7.5C251.26 10.28 248.62 14.34 246.8 19.7C244.97 25.06 244.06 31.6 244.06 39.31C244.06 44.06 244.45 48.67 245.23 53.14C246.01 57.61 247.28 61.6 249.03 65.11C250.78 68.62 253.12 71.41 256.03 73.49C258.94 75.57 262.5 76.61 266.73 76.61C268.86 76.61 270.71 76.28 272.28 75.61C273.85 74.94 275.19 74.13 276.29 73.15C277.39 72.17 278.29 71.25 279 70.37L283.06 58.43L288.59 59.27L286.51 75.92C285.16 75.96 283.88 76.18 282.68 76.58C281.48 76.98 280.15 77.44 278.67 77.94C277.2 78.45 275.36 78.89 273.17 79.28C270.98 79.67 268.22 79.86 264.9 79.86L264.92 79.87Z" fill="white"/>
<path d="M332.48 79.71C326.06 79.71 320.69 78.69 316.4 76.65C312.11 74.61 308.88 71.32 306.71 66.8C304.55 62.28 303.46 56.3 303.46 48.86V5.12997L296.16 3.50998V0.939972H323.8V3.50998L315.48 5.12997V50.54C315.48 55.64 315.89 59.85 316.7 63.19C317.51 66.52 318.68 69.15 320.2 71.07C321.72 72.99 323.56 74.34 325.7 75.13C327.85 75.91 330.26 76.31 332.93 76.31C336.78 76.31 340.12 75.27 342.95 73.19C345.77 71.11 347.97 67.98 349.54 63.79C351.11 59.6 351.88 54.35 351.85 48.02L351.55 5.17999L343.94 3.5V0.929993H363.42V3.5L356.73 5.12L356.32 47.7C356.29 53.39 355.69 58.26 354.54 62.31C353.39 66.36 351.76 69.66 349.65 72.21C347.54 74.76 345.03 76.65 342.12 77.87C339.21 79.09 336 79.7 332.48 79.7V79.71Z" fill="white"/>
<path d="M401.71 79.97C394.41 80 388.35 78.36 383.53 75.02C378.71 71.69 375.11 67.07 372.73 61.17C370.35 55.27 369.15 48.48 369.15 40.8C369.15 34.48 369.95 28.81 371.56 23.78C373.17 18.75 375.47 14.47 378.46 10.93C381.45 7.38999 385.05 4.68 389.26 2.81C393.47 0.939998 398.14 0.00997925 403.28 0.00997925C410.52 0.00997925 416.52 1.61999 421.29 4.82999C426.06 8.03999 429.62 12.55 431.99 18.34C434.36 24.14 435.54 30.93 435.54 38.71C435.54 44.99 434.75 50.68 433.16 55.76C431.57 60.84 429.28 65.19 426.29 68.8C423.3 72.41 419.73 75.18 415.59 77.1C411.45 79.02 406.82 79.98 401.72 79.98L401.71 79.97ZM402.22 76.73C406.38 76.73 409.99 75.31 413.05 72.46C416.11 69.61 418.48 65.37 420.15 59.73C421.82 54.09 422.66 47.08 422.66 38.7C422.66 31.68 421.91 25.51 420.4 20.19C418.89 14.87 416.65 10.71 413.65 7.72998C410.66 4.73998 406.93 3.25 402.46 3.25C398.27 3.25 394.64 4.62998 391.58 7.38998C388.52 10.15 386.16 14.3 384.5 19.86C382.84 25.41 382.01 32.39 382.01 40.81C382.01 48.18 382.75 54.55 384.24 59.93C385.73 65.31 387.97 69.45 390.96 72.37C393.95 75.29 397.7 76.74 402.2 76.74L402.22 76.73Z" fill="white"/>
</svg>
